<svg width="64" height="64" viewBox="0 0 64 64" fill="none" xmlns="http://www.w3.org/2000/svg">
<g clip-path="url(#clip0_47_84)">
<path d="M57.125 0H6.875C5.05225 0.00198521 3.30472 0.726951 2.01583 2.01583C0.726951 3.30472 0.00198521 5.05225 0 6.875L0 57.125C0.00198521 58.9478 0.726951 60.6953 2.01583 61.9842C3.30472 63.273 5.05225 63.998 6.875 64H57.125C58.9478 63.998 60.6953 63.273 61.9842 61.9842C63.273 60.6953 63.998 58.9478 64 57.125V6.875C63.998 5.05225 63.273 3.30472 61.9842 2.01583C60.6953 0.726951 58.9478 0.00198521 57.125 0ZM60.25 6.875V30.125H33.875V3.75H57.125C57.9538 3.75 58.7487 4.07924 59.3347 4.66529C59.9208 5.25134 60.25 6.0462 60.25 6.875V6.875ZM6.875 3.75H30.125V30.125H3.75V6.875C3.75 6.0462 4.07924 5.25134 4.66529 4.66529C5.25134 4.07924 6.0462 3.75 6.875 3.75V3.75ZM3.75 57.125V33.875H30.125V60.25H6.875C6.0462 60.25 5.25134 59.9208 4.66529 59.3347C4.07924 58.7487 3.75 57.9538 3.75 57.125V57.125ZM57.125 60.25H33.875V33.875H60.25V57.125C60.25 57.9538 59.9208 58.7487 59.3347 59.3347C58.7487 59.9208 57.9538 60.25 57.125 60.25Z" fill="black"/>
<path d="M9.5 18.875H15.125V24.5C15.125 24.9973 15.3225 25.4742 15.6742 25.8258C16.0258 26.1775 16.5027 26.375 17 26.375C17.4973 26.375 17.9742 26.1775 18.3258 25.8258C18.6775 25.4742 18.875 24.9973 18.875 24.5V18.875H24.5C24.9973 18.875 25.4742 18.6775 25.8258 18.3258C26.1775 17.9742 26.375 17.4973 26.375 17C26.375 16.5027 26.1775 16.0258 25.8258 15.6742C25.4742 15.3225 24.9973 15.125 24.5 15.125H18.875V9.5C18.875 9.00272 18.6775 8.52581 18.3258 8.17417C17.9742 7.82254 17.4973 7.625 17 7.625C16.5027 7.625 16.0258 7.82254 15.6742 8.17417C15.3225 8.52581 15.125 9.00272 15.125 9.5V15.125H9.5C9.00272 15.125 8.52581 15.3225 8.17417 15.6742C7.82254 16.0258 7.625 16.5027 7.625 17C7.625 17.4973 7.82254 17.9742 8.17417 18.3258C8.52581 18.6775 9.00272 18.875 9.5 18.875V18.875ZM39.5 18.875H54.5C54.9973 18.875 55.4742 18.6775 55.8258 18.3258C56.1775 17.9742 56.375 17.4973 56.375 17C56.375 16.5027 56.1775 16.0258 55.8258 15.6742C55.4742 15.3225 54.9973 15.125 54.5 15.125H39.5C39.0027 15.125 38.5258 15.3225 38.1742 15.6742C37.8225 16.0258 37.625 16.5027 37.625 17C37.625 17.4973 37.8225 17.9742 38.1742 18.3258C38.5258 18.6775 39.0027 18.875 39.5 18.875ZM19.5888 47L24.5138 42.0762C24.8655 41.7245 25.0631 41.2474 25.0631 40.75C25.0631 40.2526 24.8655 39.7755 24.5138 39.4238C24.162 39.072 23.6849 38.8744 23.1875 38.8744C22.6901 38.8744 22.213 39.072 21.8612 39.4238L16.9375 44.3488L12.0138 39.4238C11.662 39.072 11.1849 38.8744 10.6875 38.8744C10.1901 38.8744 9.71299 39.072 9.36125 39.4238C9.00951 39.7755 8.8119 40.2526 8.8119 40.75C8.8119 41.2474 9.00951 41.7245 9.36125 42.0762L14.2863 47L9.36125 51.9238C9.00951 52.2755 8.8119 52.7526 8.8119 53.25C8.8119 53.7474 9.00951 54.2245 9.36125 54.5762C9.71299 54.928 10.1901 55.1256 10.6875 55.1256C11.1849 55.1256 11.662 54.928 12.0138 54.5762L16.9375 49.6512L21.8612 54.5762C22.213 54.928 22.6901 55.1256 23.1875 55.1256C23.6849 55.1256 24.162 54.928 24.5138 54.5762C24.8655 54.2245 25.0631 53.7474 25.0631 53.25C25.0631 52.7526 24.8655 52.2755 24.5138 51.9238L19.5888 47ZM47.0625 52.5625C46.5652 52.5625 46.0883 52.76 45.7367 53.1117C45.385 53.4633 45.1875 53.9402 45.1875 54.4375V54.5625C45.1875 55.0598 45.385 55.5367 45.7367 55.8883C46.0883 56.24 46.5652 56.4375 47.0625 56.4375C47.5598 56.4375 48.0367 56.24 48.3883 55.8883C48.74 55.5367 48.9375 55.0598 48.9375 54.5625V54.4375C48.9375 53.9402 48.74 53.4633 48.3883 53.1117C48.0367 52.76 47.5598 52.5625 47.0625 52.5625ZM47.0625 41.5625C47.5598 41.5625 48.0367 41.365 48.3883 41.0133C48.74 40.6617 48.9375 40.1848 48.9375 39.6875V39.5625C48.9375 39.0652 48.74 38.5883 48.3883 38.2367C48.0367 37.885 47.5598 37.6875 47.0625 37.6875C46.5652 37.6875 46.0883 37.885 45.7367 38.2367C45.385 38.5883 45.1875 39.0652 45.1875 39.5625V39.6875C45.1875 40.1848 45.385 40.6617 45.7367 41.0133C46.0883 41.365 46.5652 41.5625 47.0625 41.5625ZM54.5625 45.1875H39.5625C39.0652 45.1875 38.5883 45.385 38.2367 45.7367C37.885 46.0883 37.6875 46.5652 37.6875 47.0625C37.6875 47.5598 37.885 48.0367 38.2367 48.3883C38.5883 48.74 39.0652 48.9375 39.5625 48.9375H54.5625C55.0598 48.9375 55.5367 48.74 55.8883 48.3883C56.24 48.0367 56.4375 47.5598 56.4375 47.0625C56.4375 46.5652 56.24 46.0883 55.8883 45.7367C55.5367 45.385 55.0598 45.1875 54.5625 45.1875V45.1875Z" fill="black"/>
</g>
<defs>
<clipPath id="clip0_47_84">
<rect width="64" height="64" fill="white"/>
</clipPath>
</defs>
</svg>
