<svg width="64" height="64" viewBox="0 0 64 64" fill="none" xmlns="http://www.w3.org/2000/svg">
<path d="M40.7273 32C47.1564 32 52.3636 24.84 52.3636 16C52.3636 7.16 47.1564 0 40.7273 0C34.2982 0 29.0909 7.16 29.0909 16C29.0909 24.84 34.2982 32 40.7273 32ZM14.5455 24V16C14.5455 13.8 13.2364 12 11.6364 12C10.0364 12 8.72727 13.8 8.72727 16V24H2.90909C1.30909 24 0 25.8 0 28C0 30.2 1.30909 32 2.90909 32H8.72727V40C8.72727 42.2 10.0364 44 11.6364 44C13.2364 44 14.5455 42.2 14.5455 40V32H20.3636C21.9636 32 23.2727 30.2 23.2727 28C23.2727 25.8 21.9636 24 20.3636 24H14.5455ZM40.7273 40C32.96 40 17.4545 45.36 17.4545 56V60C17.4545 62.2 18.7636 64 20.3636 64H61.0909C62.6909 64 64 62.2 64 60V56C64 45.36 48.4945 40 40.7273 40Z" fill="black"/>
</svg>
