<?xml version="1.0" ?><svg id="Layer_1" style="enable-background:new 0 0 32 32;" version="1.1" viewBox="0 0 32 32" xml:space="preserve" xmlns="http://www.w3.org/2000/svg" xmlns:xlink="http://www.w3.org/1999/xlink"><style type="text/css">
	.st0{fill:#222A30;}
	.st1{fill:#868687;}
	.st2{fill-rule:evenodd;clip-rule:evenodd;fill:#222A30;stroke:#222A30;stroke-width:0.776;}
	.st3{fill-rule:evenodd;clip-rule:evenodd;fill:#222A30;fill-opacity:0;stroke:#222A30;stroke-width:0.776;}
	.st4{fill:none;stroke:#222A30;stroke-width:1.5556;stroke-opacity:0.5;}
	.st5{fill:none;stroke:#222A30;stroke-width:1.5556;}
	.st6{fill:#070707;}
</style><path class="st0" d="M24.6,13.7c-0.8-4-4.3-7-8.6-7c-3.4,0-6.3,1.9-7.7,4.7c-3.5,0.5-6.2,3.3-6.3,6.8  c-0.1,4,3.3,7.2,7.3,7.2h14.7c2.7,0,5.1-1.7,5.8-4.2C30.8,17.4,28.1,13.9,24.6,13.7z M18.3,17.2v4.2c0,0.3-0.2,0.5-0.5,0.5h-3.7  c-0.3,0-0.5-0.2-0.5-0.5v-4.2h-2.4c-0.4,0-0.6-0.5-0.3-0.8l4.7-4.7c0.2-0.2,0.5-0.2,0.7,0l4.7,4.7c0.3,0.3,0.1,0.8-0.3,0.8H18.3z" id="backup_1_"/></svg>