<svg width="64" height="64" viewBox="0 0 64 64" fill="none" xmlns="http://www.w3.org/2000/svg">
<path d="M51.2629 64H1.33334C0.979715 64 0.640575 63.8075 0.390526 63.4649C0.140476 63.1223 0 62.6576 0 62.1731V23.0162C0 22.5317 0.140476 22.0671 0.390526 21.7245C0.640575 21.3819 0.979715 21.1894 1.33334 21.1894H51.2629C51.6165 21.1894 51.9556 21.3819 52.2057 21.7245C52.4557 22.0671 52.5962 22.5317 52.5962 23.0162V62.1731C52.5962 62.6576 52.4557 63.1223 52.2057 63.4649C51.9556 63.8075 51.6165 64 51.2629 64ZM2.66668 60.3462H49.9295V24.8431H2.66668V60.3462Z" fill="#1C1C1B"/>
<path d="M42.6669 58.4646H9.93741C9.58378 58.4646 9.24464 58.2721 8.99459 57.9295C8.74454 57.5869 8.60407 57.1223 8.60407 56.6378C8.60301 55.6655 8.32055 54.7334 7.81864 54.0461C7.31673 53.3588 6.63635 52.9722 5.92672 52.9712C5.5731 52.9712 5.23396 52.7788 4.98391 52.4362C4.73386 52.0936 4.59338 51.6289 4.59338 51.1444V34.0468C4.59338 33.5623 4.73386 33.0977 4.98391 32.7551C5.23396 32.4125 5.5731 32.22 5.92672 32.22C6.63647 32.2185 7.31685 31.8316 7.81872 31.1439C8.32059 30.4563 8.60301 29.5241 8.60407 28.5516C8.60407 28.0671 8.74454 27.6025 8.99459 27.2599C9.24464 26.9173 9.58378 26.7248 9.93741 26.7248H42.6669C43.0205 26.7248 43.3596 26.9173 43.6097 27.2599C43.8597 27.6025 44.0002 28.0671 44.0002 28.5516C44.0009 29.5217 44.2817 30.452 44.7814 31.1393C45.281 31.8267 45.9589 32.2152 46.6669 32.22C47.0205 32.22 47.3597 32.4125 47.6097 32.7551C47.8598 33.0977 48.0002 33.5623 48.0002 34.0468V51.1444C48.0002 51.6289 47.8598 52.0936 47.6097 52.4362C47.3597 52.7788 47.0205 52.9712 46.6669 52.9712C45.9574 52.9722 45.2771 53.3588 44.7754 54.0462C44.2737 54.7336 43.9916 55.6656 43.9909 56.6378C43.9909 57.1201 43.8517 57.5828 43.6037 57.925C43.3556 58.2673 43.0189 58.4612 42.6669 58.4646ZM11.1081 54.8109H41.5082C41.7466 53.546 42.2267 52.391 42.899 51.4646C43.5714 50.5383 44.4117 49.8741 45.3335 49.5404V35.6417C44.4093 35.3124 43.5659 34.6509 42.8906 33.7257C42.2153 32.8004 41.7326 31.6449 41.4922 30.3785H11.1014C10.8613 31.6451 10.3786 32.8008 9.70329 33.7261C9.02795 34.6514 8.18446 35.3127 7.26006 35.6417V49.5404C8.18499 49.8703 9.02878 50.5329 9.70413 51.4595C10.3795 52.3861 10.8619 53.5432 11.1014 54.8109H11.1081Z" fill="#1C1C1B"/>
<path d="M26.2988 52.6644C24.845 52.6647 23.4239 52.0744 22.215 50.968C21.0062 49.8616 20.064 48.2888 19.5076 46.4486C18.9512 44.6085 18.8057 42.5836 19.0893 40.63C19.373 38.6765 20.0731 36.8821 21.1011 35.4738C22.1292 34.0655 23.4389 33.1065 24.8648 32.7183C26.2906 32.33 27.7685 32.5298 29.1114 33.2925C30.4544 34.0551 31.6021 35.3463 32.4094 37.0028C33.2167 38.6593 33.6473 40.6066 33.6468 42.5984C33.6436 45.267 32.8684 47.8251 31.491 49.7119C30.1136 51.5988 28.2465 52.6605 26.2988 52.6644V52.6644ZM26.2988 36.1806C25.3726 36.1803 24.4672 36.5562 23.697 37.2609C22.9268 37.9656 22.3264 38.9674 21.9717 40.1396C21.617 41.3118 21.524 42.6018 21.7045 43.8464C21.8849 45.0911 22.3306 46.2345 22.9853 47.132C23.64 48.0295 24.4743 48.6409 25.3826 48.8888C26.2909 49.1368 27.2324 49.0101 28.0882 48.5248C28.9439 48.0395 29.6754 47.2175 30.1902 46.1626C30.705 45.1077 30.9798 43.8673 30.9801 42.5984C30.9794 40.8972 30.486 39.266 29.6084 38.0627C28.7307 36.8595 27.5404 36.1826 26.2988 36.1806V36.1806Z" fill="#1C1C1B"/>
<path d="M54.4256 53.5375C54.0835 53.5376 53.7544 53.3575 53.5065 53.0345C53.2587 52.7115 53.1109 52.2703 53.0937 51.8021C53.0766 51.334 53.1915 50.8748 53.4145 50.5194C53.6376 50.1641 53.9518 49.9398 54.2922 49.893L55.8309 49.6719L53.1242 14.3643L10.2001 20.539C9.8482 20.5897 9.49607 20.4467 9.22114 20.1416C8.94621 19.8365 8.771 19.3943 8.73405 18.9122C8.69709 18.4301 8.80143 17.9477 9.0241 17.571C9.24676 17.1943 9.56953 16.9542 9.92138 16.9036L54.1669 10.5388C54.3411 10.5135 54.5173 10.5355 54.6853 10.6035C54.8534 10.6715 55.01 10.7843 55.1462 10.9353C55.2824 11.0863 55.3955 11.2726 55.4792 11.4835C55.5628 11.6945 55.6153 11.926 55.6336 12.1647L58.6189 51.1078C58.6374 51.3466 58.6213 51.5879 58.5717 51.8182C58.522 52.0484 58.4398 52.263 58.3296 52.4496C58.2193 52.6362 58.0834 52.7913 57.9294 52.9058C57.7754 53.0204 57.6065 53.0923 57.4322 53.1174L54.5669 53.5302C54.5189 53.5339 54.4722 53.5375 54.4256 53.5375Z" fill="#1C1C1B"/>
<path d="M60.4895 42.6861C60.1579 42.6857 59.8383 42.516 59.5931 42.2101C59.3479 41.9042 59.1947 41.4841 59.1633 41.0317C59.132 40.5794 59.2249 40.1273 59.4237 39.7637C59.6226 39.4001 59.9132 39.151 60.2389 39.0652L61.1069 38.8369L56.2242 3.96948L14.436 14.9525C14.2638 14.9978 14.0868 14.9961 13.9151 14.9476C13.7433 14.899 13.5803 14.8047 13.4352 14.6698C13.1421 14.3974 12.94 13.9767 12.8734 13.5002C12.8404 13.2642 12.8416 13.0217 12.877 12.7864C12.9124 12.5511 12.9813 12.3277 13.0797 12.1289C13.1781 11.93 13.3042 11.7597 13.4507 11.6277C13.5971 11.4956 13.7612 11.4043 13.9334 11.3591L57.0322 0.0326008C57.3793 -0.0584465 57.7385 0.0429906 58.031 0.314627C58.3235 0.586264 58.5254 1.00588 58.5922 1.4813L63.9762 39.9385C64.0426 40.4142 63.9684 40.9067 63.7699 41.3075C63.5714 41.7083 63.2648 41.9847 62.9176 42.0759L60.7415 42.6477C60.6586 42.6712 60.5742 42.684 60.4895 42.6861V42.6861Z" fill="#1C1C1B"/>
</svg>
