<svg width="64" height="64" viewBox="0 0 64 64" fill="none" xmlns="http://www.w3.org/2000/svg">
<path d="M4.57143 56.8889C4.57143 60.8 8.68571 64 13.7143 64H50.2857C55.3143 64 59.4286 60.8 59.4286 56.8889V21.3333C59.4286 17.4222 55.3143 14.2222 50.2857 14.2222H13.7143C8.68571 14.2222 4.57143 17.4222 4.57143 21.3333V56.8889ZM59.4286 3.55556H48L44.7543 1.03111C43.9314 0.391111 42.7429 0 41.5543 0H22.4457C21.2571 0 20.0686 0.391111 19.2457 1.03111L16 3.55556H4.57143C2.05714 3.55556 0 5.15556 0 7.11111C0 9.06667 2.05714 10.6667 4.57143 10.6667H59.4286C61.9429 10.6667 64 9.06667 64 7.11111C64 5.15556 61.9429 3.55556 59.4286 3.55556Z" fill="black"/>
</svg>
