<svg width="64" height="64" viewBox="0 0 64 64" fill="none" xmlns="http://www.w3.org/2000/svg">
<path d="M52.2105 7.11108H11.7894C8.92629 7.11108 6.73682 8.65182 6.73682 10.6666V15.4074C6.73682 17.4222 8.92629 18.9629 11.7894 18.9629H52.2105C55.0737 18.9629 57.2631 17.4222 57.2631 15.4074V10.6666C57.2631 8.65182 55.0737 7.11108 52.2105 7.11108ZM53.8947 15.4074C53.8947 16.1185 53.221 16.5926 52.2105 16.5926H11.7894C10.7789 16.5926 10.1052 16.1185 10.1052 15.4074V10.6666C10.1052 9.95553 10.7789 9.48145 11.7894 9.48145H52.2105C53.221 9.48145 53.8947 9.95553 53.8947 10.6666V15.4074Z" fill="#231F20"/>
<path d="M58.9474 0H5.05263C2.18947 0 0 1.54074 0 3.55556V60.4444C0 62.4593 2.18947 64 5.05263 64H58.9474C61.8105 64 64 62.4593 64 60.4444V3.55556C64 1.54074 61.8105 0 58.9474 0ZM60.6316 60.4444C60.6316 61.1556 59.9579 61.6296 58.9474 61.6296H5.05263C4.04211 61.6296 3.36842 61.1556 3.36842 60.4444V3.55556C3.36842 2.84444 4.04211 2.37037 5.05263 2.37037H58.9474C59.9579 2.37037 60.6316 2.84444 60.6316 3.55556V60.4444Z" fill="#231F20"/>
<path d="M16.8421 24.8889H13.4737C10.6106 24.8889 8.42108 26.4297 8.42108 28.4445V30.8148C8.42108 32.8297 10.6106 34.3704 13.4737 34.3704H16.8421C19.7053 34.3704 21.8948 32.8297 21.8948 30.8148V28.4445C21.8948 26.4297 19.7053 24.8889 16.8421 24.8889ZM18.5263 30.8148C18.5263 31.526 17.8527 32 16.8421 32H13.4737C12.4632 32 11.7895 31.526 11.7895 30.8148V28.4445C11.7895 27.7334 12.4632 27.2593 13.4737 27.2593H16.8421C17.8527 27.2593 18.5263 27.7334 18.5263 28.4445V30.8148ZM33.6842 24.8889H30.3158C27.4527 24.8889 25.2632 26.4297 25.2632 28.4445V30.8148C25.2632 32.8297 27.4527 34.3704 30.3158 34.3704H33.6842C36.5474 34.3704 38.7369 32.8297 38.7369 30.8148V28.4445C38.7369 26.4297 36.5474 24.8889 33.6842 24.8889ZM35.3685 30.8148C35.3685 31.526 34.6948 32 33.6842 32H30.3158C29.3053 32 28.6316 31.526 28.6316 30.8148V28.4445C28.6316 27.7334 29.3053 27.2593 30.3158 27.2593H33.6842C34.6948 27.2593 35.3685 27.7334 35.3685 28.4445V30.8148ZM50.5263 24.8889H47.1579C44.2948 24.8889 42.1053 26.4297 42.1053 28.4445V30.8148C42.1053 32.8297 44.2948 34.3704 47.1579 34.3704H50.5263C53.3895 34.3704 55.579 32.8297 55.579 30.8148V28.4445C55.579 26.4297 53.3895 24.8889 50.5263 24.8889ZM52.2106 30.8148C52.2106 31.526 51.5369 32 50.5263 32H47.1579C46.1474 32 45.4737 31.526 45.4737 30.8148V28.4445C45.4737 27.7334 46.1474 27.2593 47.1579 27.2593H50.5263C51.5369 27.2593 52.2106 27.7334 52.2106 28.4445V30.8148ZM16.8421 36.7408H13.4737C10.6106 36.7408 8.42108 38.2815 8.42108 40.2963V42.6667C8.42108 44.6815 10.6106 46.2222 13.4737 46.2222H16.8421C19.7053 46.2222 21.8948 44.6815 21.8948 42.6667V40.2963C21.8948 38.2815 19.7053 36.7408 16.8421 36.7408ZM18.5263 42.6667C18.5263 43.3778 17.8527 43.8519 16.8421 43.8519H13.4737C12.4632 43.8519 11.7895 43.3778 11.7895 42.6667V40.2963C11.7895 39.5852 12.4632 39.1111 13.4737 39.1111H16.8421C17.8527 39.1111 18.5263 39.5852 18.5263 40.2963V42.6667ZM16.8421 48.5926H13.4737C10.6106 48.5926 8.42108 50.1334 8.42108 52.1482V54.5185C8.42108 56.5334 10.6106 58.0741 13.4737 58.0741H16.8421C19.7053 58.0741 21.8948 56.5334 21.8948 54.5185V52.1482C21.8948 50.1334 19.7053 48.5926 16.8421 48.5926ZM18.5263 54.5185C18.5263 55.2297 17.8527 55.7037 16.8421 55.7037H13.4737C12.4632 55.7037 11.7895 55.2297 11.7895 54.5185V52.1482C11.7895 51.4371 12.4632 50.963 13.4737 50.963H16.8421C17.8527 50.963 18.5263 51.4371 18.5263 52.1482V54.5185Z" fill="#231F20"/>
<path d="M45.8824 48.7614C44.8581 48.7614 44.0246 49.3477 44.0246 50.0685C44.0246 50.7895 44.8581 51.3761 45.8824 51.3761C46.907 51.3761 47.74 50.7895 47.74 50.0685C47.7398 49.3477 46.9067 48.7614 45.8824 48.7614Z" fill="black"/>
<path d="M36.6235 42.2462C35.599 42.2462 34.7654 42.8327 34.7654 43.5537C34.7657 44.2743 35.5992 44.8607 36.6235 44.8607C37.6478 44.8607 38.4809 44.2743 38.4809 43.5537C38.4809 42.8327 37.6478 42.2462 36.6235 42.2462Z" fill="black"/>
<path d="M41.2639 35.5555C32.4408 35.5555 25.2632 40.6064 25.2632 46.8153C25.2632 53.0239 32.4408 58.0751 41.2639 58.0751C50.0861 58.0751 57.2632 53.0239 57.2632 46.8153C57.2632 40.6064 50.0861 35.5555 41.2639 35.5555ZM36.6235 40.8376C38.7511 40.8376 40.4826 42.0558 40.4826 43.5537C40.4826 45.0509 38.7511 46.2694 36.6235 46.2694C34.4951 46.2694 32.7638 45.0509 32.7638 43.5537C32.7638 42.0558 34.4954 40.8376 36.6235 40.8376ZM35.4502 51.9019C35.2552 52.0395 34.9984 52.1085 34.7426 52.1085C34.4866 52.1085 34.2304 52.0395 34.0348 51.9019C33.6441 51.627 33.6441 51.1808 34.0348 50.9062L47.0762 41.7285C47.4667 41.4536 48.1005 41.4536 48.4915 41.7285C48.8823 42.0035 48.8823 42.4497 48.4915 42.7245L35.4502 51.9019ZM45.8824 52.7844C43.7543 52.7844 42.0227 51.5661 42.0227 50.0684C42.0227 48.5712 43.7543 47.3526 45.8824 47.3526C48.0102 47.3526 49.7416 48.5712 49.7416 50.0684C49.7413 51.5661 48.01 52.7844 45.8824 52.7844Z" fill="black"/>
</svg>
