<svg width="64" height="64" viewBox="0 0 64 64" fill="none" xmlns="http://www.w3.org/2000/svg">
<path d="M63.9645 20.8531L59.4265 0.581707C59.3725 0.3264 59.2104 0.173216 59.0483 0.122155C58.9403 0.0200317 58.7242 -0.0310298 58.4 0.0200316C58.292 0.0200316 58.238 0.0710931 58.1299 0.122155L39.4376 10.6919C39.0594 10.8961 38.8973 11.4067 39.1675 11.7642C39.2755 11.9173 39.3836 12.0195 39.5456 12.0705L44.6779 14.164L43.6515 16.6661C43.3273 17.5341 35.4938 36.3758 4.2679 36.3758C3.07937 36.3758 1.78279 36.3247 0.540241 36.2736H0.378168C0.27012 36.2736 0.216096 36.3247 0.108048 36.3758C0.054024 36.4268 0 36.529 0 36.6311C0 36.7843 0.108048 36.9374 0.27012 36.9885L0.378168 37.0396C7.13118 39.1841 14.1543 40.3075 21.2855 40.4096C47.055 40.4096 56.2931 22.2828 56.4011 22.0786L57.6437 19.5766L62.884 21.7211C63.1001 21.8233 63.3702 21.7722 63.4783 21.7211C63.6404 21.6701 63.8024 21.568 63.9105 21.3126C64.0185 21.1595 64.0185 21.0063 63.9645 20.8531ZM3.67364 64H17.1256V45.5668C12.5876 45.2605 8.10361 44.5967 3.67364 43.5244V64V64ZM46.8389 39.082V64H60.2909V26.4699H60.2369C58.292 29.3804 54.0241 34.7418 46.8389 39.082ZM25.2292 64H38.6812V42.9116C34.7915 44.2903 30.3615 45.2605 25.2292 45.6179V64Z" fill="#353534"/>
</svg>
