<svg width="64" height="64" viewBox="0 0 64 64" fill="none" xmlns="http://www.w3.org/2000/svg">
<g clip-path="url(#clip0_48_156)">
<path d="M10.6666 28C8.45329 28 6.66663 29.7867 6.66663 32C6.66663 34.2133 8.45329 36 10.6666 36C12.88 36 14.6666 34.2133 14.6666 32C14.6666 29.7867 12.88 28 10.6666 28ZM10.6666 12C8.45329 12 6.66663 13.7867 6.66663 16C6.66663 18.2133 8.45329 20 10.6666 20C12.88 20 14.6666 18.2133 14.6666 16C14.6666 13.7867 12.88 12 10.6666 12ZM10.6666 44C8.45329 44 6.66663 45.8133 6.66663 48C6.66663 50.1867 8.47996 52 10.6666 52C12.8533 52 14.6666 50.1867 14.6666 48C14.6666 45.8133 12.88 44 10.6666 44ZM21.3333 50.6667H53.3333C54.8 50.6667 56 49.4667 56 48C56 46.5333 54.8 45.3333 53.3333 45.3333H21.3333C19.8666 45.3333 18.6666 46.5333 18.6666 48C18.6666 49.4667 19.8666 50.6667 21.3333 50.6667ZM21.3333 34.6667H53.3333C54.8 34.6667 56 33.4667 56 32C56 30.5333 54.8 29.3333 53.3333 29.3333H21.3333C19.8666 29.3333 18.6666 30.5333 18.6666 32C18.6666 33.4667 19.8666 34.6667 21.3333 34.6667ZM18.6666 16C18.6666 17.4667 19.8666 18.6667 21.3333 18.6667H53.3333C54.8 18.6667 56 17.4667 56 16C56 14.5333 54.8 13.3333 53.3333 13.3333H21.3333C19.8666 13.3333 18.6666 14.5333 18.6666 16Z" fill="black"/>
</g>
<defs>
<clipPath id="clip0_48_156">
<rect width="64" height="64" fill="white"/>
</clipPath>
</defs>
</svg>
