<?xml version="1.0" ?><svg viewBox="0 0 256 256" xmlns="http://www.w3.org/2000/svg"><rect fill="none" height="256" width="256"/><line fill="none" stroke="#000" stroke-linecap="round" stroke-linejoin="round" stroke-width="8" x1="96" x2="160" y1="96" y2="96"/><line fill="none" stroke="#000" stroke-linecap="round" stroke-linejoin="round" stroke-width="8" x1="96" x2="160" y1="128" y2="128"/><line fill="none" stroke="#000" stroke-linecap="round" stroke-linejoin="round" stroke-width="8" x1="96" x2="128" y1="160" y2="160"/><path d="M156.7,216H48a8,8,0,0,1-8-8V48a8,8,0,0,1,8-8H208a8,8,0,0,1,8,8V156.7a7.9,7.9,0,0,1-2.3,5.6l-51.4,51.4A7.9,7.9,0,0,1,156.7,216Z" fill="none" stroke="#000" stroke-linecap="round" stroke-linejoin="round" stroke-width="8"/><polyline fill="none" points="215.3 160 160 160 160 215.3" stroke="#000" stroke-linecap="round" stroke-linejoin="round" stroke-width="8"/></svg>