<svg width="64" height="64" viewBox="0 0 64 64" fill="none" xmlns="http://www.w3.org/2000/svg">
<path d="M57.6 0H19.2C15.68 0 12.8 2.88 12.8 6.4V44.8C12.8 48.32 15.68 51.2 19.2 51.2H57.6C61.12 51.2 64 48.32 64 44.8V6.4C64 2.88 61.12 0 57.6 0ZM30.4 24C30.4 26.656 28.256 28.8 25.6 28.8H22.4V32.8C22.4 34.112 21.312 35.2 20 35.2C18.688 35.2 17.6 34.112 17.6 32.8V19.2C17.6 17.44 19.04 16 20.8 16H25.6C28.256 16 30.4 18.144 30.4 20.8V24ZM46.4 30.4C46.4 33.056 44.256 35.2 41.6 35.2H35.2C34.304 35.2 33.6 34.496 33.6 33.6V17.6C33.6 16.704 34.304 16 35.2 16H41.6C44.256 16 46.4 18.144 46.4 20.8V30.4ZM59.2 18.4C59.2 19.712 58.112 20.8 56.8 20.8H54.4V24H56.8C58.112 24 59.2 25.088 59.2 26.4C59.2 27.712 58.112 28.8 56.8 28.8H54.4V32.8C54.4 34.112 53.312 35.2 52 35.2C50.688 35.2 49.6 34.112 49.6 32.8V19.2C49.6 17.44 51.04 16 52.8 16H56.8C58.112 16 59.2 17.088 59.2 18.4ZM22.4 24H25.6V20.8H22.4V24ZM3.2 12.8C1.44 12.8 0 14.24 0 16V57.6C0 61.12 2.88 64 6.4 64H48C49.76 64 51.2 62.56 51.2 60.8C51.2 59.04 49.76 57.6 48 57.6H9.6C7.84 57.6 6.4 56.16 6.4 54.4V16C6.4 14.24 4.96 12.8 3.2 12.8ZM38.4 30.4H41.6V20.8H38.4V30.4Z" fill="black"/>
</svg>
