<svg width="64" height="64" viewBox="0 0 64 64" fill="none" xmlns="http://www.w3.org/2000/svg">
<path d="M57.7293 43.6436L48.6799 42.6104C46.5067 42.361 44.369 43.1092 42.8371 44.6412L36.2816 51.1967C26.1991 46.0663 17.9336 37.8364 12.8033 27.7182L19.3943 21.1271C20.9263 19.5951 21.6745 17.4575 21.4251 15.2842L20.3919 6.30606C19.9644 2.70769 16.936 0 13.3021 0H7.13854C3.11266 0 -0.236303 3.34898 0.0130876 7.37488C1.90133 37.8007 26.2348 62.0987 56.6248 63.9869C60.6507 64.2363 63.9997 60.8873 63.9997 56.8614V50.6979C64.0353 47.0995 61.3276 44.0712 57.7293 43.6436V43.6436Z" fill="black"/>
</svg>
