<svg width="64" height="64" viewBox="0 0 64 64" fill="none" xmlns="http://www.w3.org/2000/svg">
<path d="M53.3333 45.2369C50.6311 45.2369 48.2133 46.2008 46.3644 47.7108L21.0133 34.3775C21.1911 33.6386 21.3333 32.8996 21.3333 32.1285C21.3333 31.3574 21.1911 30.6185 21.0133 29.8795L46.08 16.6747C48 18.2811 50.5244 19.2771 53.3333 19.2771C59.2356 19.2771 64 14.9719 64 9.63855C64 4.30522 59.2356 0 53.3333 0C47.4311 0 42.6667 4.30522 42.6667 9.63855C42.6667 10.4096 42.8089 11.1486 42.9867 11.8875L17.92 25.0924C16 23.4859 13.4756 22.49 10.6667 22.49C4.76444 22.49 0 26.7952 0 32.1285C0 37.4618 4.76444 41.7671 10.6667 41.7671C13.4756 41.7671 16 40.7711 17.92 39.1647L43.2356 52.5301C43.0578 53.2048 42.9511 53.9116 42.9511 54.6185C42.9511 59.7912 47.6089 64 53.3333 64C59.0578 64 63.7156 59.7912 63.7156 54.6185C63.7156 49.4458 59.0578 45.2369 53.3333 45.2369Z" fill="black"/>
</svg>
