<svg width="78" height="80" viewBox="0 0 78 80" fill="none" xmlns="http://www.w3.org/2000/svg">
<path d="M68.6373 43.92C68.7973 42.64 68.9173 41.36 68.9173 40C68.9173 38.64 68.7973 37.36 68.6373 36.08L77.0773 29.48C77.8373 28.88 78.0373 27.8 77.5573 26.92L69.5573 13.08C69.0773 12.2 67.9973 11.88 67.1173 12.2L57.1573 16.2C55.0773 14.6 52.8373 13.28 50.3973 12.28L48.8773 1.68C48.7573 0.72 47.9173 0 46.9173 0H30.9173C29.9173 0 29.0773 0.72 28.9573 1.68L27.4373 12.28C24.9973 13.28 22.7573 14.64 20.6773 16.2L10.7173 12.2C9.79733 11.84 8.75733 12.2 8.27733 13.08L0.277326 26.92C-0.242674 27.8 -0.00267321 28.88 0.757327 29.48L9.19733 36.08C9.03733 37.36 8.91733 38.68 8.91733 40C8.91733 41.32 9.03733 42.64 9.19733 43.92L0.757327 50.52C-0.00267321 51.12 -0.202674 52.2 0.277326 53.08L8.27733 66.92C8.75733 67.8 9.83733 68.12 10.7173 67.8L20.6773 63.8C22.7573 65.4 24.9973 66.72 27.4373 67.72L28.9573 78.32C29.0773 79.28 29.9173 80 30.9173 80H46.9173C47.9173 80 48.7573 79.28 48.8773 78.32L50.3973 67.72C52.8373 66.72 55.0773 65.36 57.1573 63.8L67.1173 67.8C68.0373 68.16 69.0773 67.8 69.5573 66.92L77.5573 53.08C78.0373 52.2 77.8373 51.12 77.0773 50.52L68.6373 43.92V43.92ZM38.9173 54C31.1973 54 24.9173 47.72 24.9173 40C24.9173 32.28 31.1973 26 38.9173 26C46.6373 26 52.9173 32.28 52.9173 40C52.9173 47.72 46.6373 54 38.9173 54Z" fill="black"/>
</svg>
