<svg width="64" height="64" viewBox="0 0 64 64" fill="none" xmlns="http://www.w3.org/2000/svg">
<path d="M60.6989 10.1053H53.8947V3.30105C53.8947 1.48211 52.4126 0 50.5937 0H50.4926C48.64 0 47.1579 1.48211 47.1579 3.30105V10.1053H40.3874C38.5684 10.1053 37.0863 11.5874 37.0526 13.4063V13.5074C37.0526 15.36 38.5347 16.8421 40.3874 16.8421H47.1579V23.6126C47.1579 25.4316 48.64 26.9474 50.4926 26.9137H50.5937C52.4126 26.9137 53.8947 25.4316 53.8947 23.6126V16.8421H60.6989C62.5179 16.8421 64 15.36 64 13.5411V13.4063C64 11.5874 62.5179 10.1053 60.6989 10.1053ZM43.7895 23.6126V20.2105H40.3874C38.6021 20.2105 36.9179 19.5032 35.6379 18.2568C34.3916 16.9768 33.6842 15.2926 33.6842 13.4063C33.6842 12.1937 34.0211 11.0821 34.5937 10.1053H6.73684C3.03158 10.1053 0 13.1368 0 16.8421V57.2632C0 60.9684 3.03158 64 6.73684 64H47.1579C50.8632 64 53.8947 60.9684 53.8947 57.2632V29.3726C52.8842 29.9453 51.7389 30.3158 50.4589 30.3158C46.7874 30.2821 43.7895 27.2842 43.7895 23.6126ZM43.6547 57.2632H10.1053C8.72421 57.2632 7.91579 55.68 8.75789 54.5684L15.4274 45.7095C16.1347 44.7663 17.5158 44.8337 18.1895 45.7768L23.5789 53.8947L32.3705 42.1726C33.0442 41.2968 34.3579 41.2632 35.0316 42.1389L44.9684 54.5347C45.8442 55.6463 45.0695 57.2632 43.6547 57.2632V57.2632Z" fill="black"/>
</svg>
