<svg width="72" height="68" viewBox="0 0 72 68" fill="none" xmlns="http://www.w3.org/2000/svg">
<path d="M0 25.8441V41.8441C0 44.0441 1.8 45.8441 4 45.8441H16L29.16 59.0041C31.68 61.5241 36 59.7241 36 56.1641V11.4841C36 7.92409 31.68 6.12409 29.16 8.64409L16 21.8441H4C1.8 21.8441 0 23.6441 0 25.8441ZM54 33.8441C54 26.7641 49.92 20.6841 44 17.7241V49.9241C49.92 47.0041 54 40.9241 54 33.8441ZM44 3.64409V4.44409C44 5.96409 45 7.28409 46.4 7.84409C56.72 11.9641 64 22.0841 64 33.8441C64 45.6041 56.72 55.7241 46.4 59.8441C44.96 60.4041 44 61.7241 44 63.2441V64.0441C44 66.5641 46.52 68.3241 48.84 67.4441C62.4 62.2841 72 49.2041 72 33.8441C72 18.4841 62.4 5.40409 48.84 0.24409C46.52 -0.67591 44 1.12409 44 3.64409V3.64409Z" fill="black"/>
</svg>
