<svg width="64" height="64" viewBox="0 0 64 64" fill="none" xmlns="http://www.w3.org/2000/svg">
<path d="M3.3217 20.6515H52.6062L42.7023 29.8116C40.5698 31.6465 42.205 35.1914 45.0684 35.0949C45.9244 35.0949 46.7806 34.7927 47.4342 34.1882L63.0505 19.7448C63.9666 18.8389 64.2446 17.5362 63.7759 16.3717C63.5704 16.0196 63.3241 15.6781 63.0504 15.3683C63.0505 15.3683 47.4342 0.92484 47.4342 0.92484C44.2774 -1.89791 39.6408 2.37089 42.7023 5.30149C42.7022 5.30139 52.6062 14.4615 52.6062 14.4615H3.3217C-1.04501 14.5221 -1.10231 20.5799 3.3217 20.6515ZM60.6845 43.3483H11.4L21.3039 34.1882C24.3589 31.2752 19.7383 26.9774 16.5719 29.8118C16.572 29.8117 0.955695 44.2551 0.955695 44.2551C0.0239904 45.18 -0.298468 46.6027 0.312096 47.754C0.483459 48.0696 0.723149 48.3561 0.955695 48.6316L16.572 63.075C19.7289 65.8983 24.3652 61.6284 21.3038 58.6984C21.3039 58.6985 11.3999 49.5384 11.3999 49.5384H60.6845C65.0509 49.4784 65.1085 43.4195 60.6845 43.3483Z" fill="black"/>
</svg>
